<mxfile host="app.diagrams.net" modified="2024-07-16T09:19:09.059Z" agent="Mozilla/5.0 (X11; Linux x86_64) AppleWebKit/537.36 (KHTML, like Gecko) Chrome/125.0.0.0 Safari/537.36" version="24.6.5" etag="LlIHb85GXYWhCRGhJpsu" type="github">
  <diagram name="Page-1" id="FQBSAvjKyMtUiZRnSMw3">
    <mxGraphModel>
      <root>
        <mxCell id="0" />
        <mxCell id="1" parent="0" />
      </root>
    </mxGraphModel>
  </diagram>
</mxfile>
